# xmcd
#
# Track frame offsets: 
#        150
#        24109
#        45043
#        71296
#        86412
#        103397
#        122616
#        142175
#        159484
#        182784
#        204329
#        225549
#        249167
#        269385
#
# Disc length: 3819 seconds
#
# Revision: 1
# Processed by: cddbd v1.5.2PL0 Copyright (c) Steve Scherf et al.
# Submitted via: ExactAudioCopy v1.3
#
DISCID=ad0ee90e
DTITLE=Various Artist - Pure Joy
DYEAR=2006
DGENRE=Gospel
TTITLE0=BeBe and CeCe Winans - Addictive Love
TTITLE1=CeCe Winans - Everlasting Love
TTITLE2=Melba Moore - Lift Every Voice And Sing
TTITLE3=Jeffrey Osborne - People Get Ready
TTITLE4=Patti LaBelle - Over The Rainbow
TTITLE5=Wendy Moten - Come In Out of The Rain
TTITLE6=Eternal - I Am Blessed
TTITLE7=Jaki Graham - I Want To Thank You (Heavenly Father)
TTITLE8=Frankie Knuckles - Walkin'
TTITLE9=Nicole Brydson and Larue Hill - Be Ready
TTITLE10=Ashford and Simpson - Count Your Blessings
TTITLE11=Taylor Dayne - There Is No Heart Thet Won't Heal
TTITLE12=Dionne Warwick - If I Want To
TTITLE13=Kavana - Will You Wait For Me
EXTD=
EXTT0=
EXTT1=
EXTT2=
EXTT3=
EXTT4=
EXTT5=
EXTT6=
EXTT7=
EXTT8=
EXTT9=
EXTT10=
EXTT11=
EXTT12=
EXTT13=
PLAYORDER=
